<svg xmlns="http://www.w3.org/2000/svg" viewBox="0 0 674 480" font-family="ui-monospace,monospace">
<style>
  .outline{fill:#ffffff;stroke:#b9bcc2;stroke-width:1.6;stroke-linejoin:round;}
  .muscle{fill:#d9dce1;stroke:#ffffff;stroke-width:1.2;stroke-linejoin:round;}
</style>
<path class="outline" d="M 160.0 12.0 C 155.0 11.8 148.7 14.5 145.0 17.0 C 141.3 19.5 139.3 21.8 138.0 27.0 C 136.7 32.2 135.8 41.8 137.0 48.0 C 138.2 54.2 143.8 58.8 145.0 64.0 C 146.2 69.2 146.2 75.2 144.0 79.0 C 141.8 82.8 137.0 84.8 132.0 87.0 C 127.0 89.2 118.5 89.2 114.0 92.0 C 109.5 94.8 107.5 99.7 105.0 104.0 C 102.5 108.3 100.7 111.5 99.0 118.0 C 97.3 124.5 97.2 135.8 95.0 143.0 C 92.8 150.2 88.3 157.5 86.0 161.0 C 83.7 164.5 85.3 155.0 81.0 164.0 C 76.7 173.0 66.3 204.2 60.0 215.0 C 53.7 225.8 46.8 224.0 43.0 229.0 C 39.2 234.0 37.8 241.3 37.0 245.0 C 36.2 248.7 35.3 249.0 38.0 251.0 C 40.7 253.0 49.3 256.3 53.0 257.0 C 56.7 257.7 57.5 257.8 60.0 255.0 C 62.5 252.2 66.0 245.2 68.0 240.0 C 70.0 234.8 68.2 230.3 72.0 224.0 C 75.8 217.7 85.0 212.0 91.0 202.0 C 97.0 192.0 104.0 172.0 108.0 164.0 C 112.0 156.0 112.5 155.7 115.0 154.0 C 117.5 152.3 120.8 149.2 123.0 154.0 C 125.2 158.8 129.3 171.8 128.0 183.0 C 126.7 194.2 117.8 208.8 115.0 221.0 C 112.2 233.2 111.5 233.2 111.0 256.0 C 110.5 278.8 112.5 338.7 112.0 358.0 C 111.5 377.3 108.7 365.3 108.0 372.0 C 107.3 378.7 106.8 383.8 108.0 398.0 C 109.2 412.2 114.7 444.5 115.0 457.0 C 115.3 469.5 112.5 469.3 110.0 473.0 C 107.5 476.7 100.0 478.0 100.0 479.0 C 100.0 480.0 107.2 482.8 110.0 479.0 C 112.8 475.2 117.2 471.0 117.0 456.0 C 116.8 441.0 109.2 411.5 109.0 389.0 C 108.8 366.5 110.7 331.3 116.0 321.0 C 121.3 310.7 139.0 308.7 141.0 327.0 C 143.0 345.3 129.7 405.7 128.0 431.0 C 126.3 456.3 130.7 479.5 131.0 479.0 C 131.3 478.5 129.2 442.3 130.0 428.0 C 130.8 413.7 135.0 403.5 136.0 393.0 C 137.0 382.5 132.8 384.8 136.0 365.0 C 139.2 345.2 150.5 289.2 155.0 274.0 C 159.5 258.8 158.5 260.0 163.0 274.0 C 167.5 288.0 178.7 337.2 182.0 358.0 C 185.3 378.8 181.8 387.3 183.0 399.0 C 184.2 410.7 188.2 414.7 189.0 428.0 C 189.8 441.3 187.7 478.3 188.0 479.0 C 188.3 479.7 191.5 444.7 191.0 432.0 C 190.5 419.3 186.2 414.7 185.0 403.0 C 183.8 391.3 185.2 374.8 184.0 362.0 C 182.8 349.2 176.2 332.7 178.0 326.0 C 179.8 319.3 190.7 322.5 195.0 322.0 C 199.3 321.5 202.3 317.0 204.0 323.0 C 205.7 329.0 204.2 350.2 205.0 358.0 C 205.8 365.8 208.3 362.7 209.0 370.0 C 209.7 377.3 210.2 387.7 209.0 402.0 C 207.8 416.3 202.0 443.2 202.0 456.0 C 202.0 468.8 206.2 475.2 209.0 479.0 C 211.8 482.8 219.2 480.2 219.0 479.0 C 218.8 477.8 210.5 475.7 208.0 472.0 C 205.5 468.3 203.5 473.3 204.0 457.0 C 204.5 440.7 210.7 390.8 211.0 374.0 C 211.3 357.2 206.8 378.7 206.0 356.0 C 205.2 333.3 206.3 260.5 206.0 238.0 C 205.7 215.5 206.5 230.2 204.0 221.0 C 201.5 211.8 192.3 194.2 191.0 183.0 C 189.7 171.8 193.8 158.8 196.0 154.0 C 198.2 149.2 200.3 150.5 204.0 154.0 C 207.7 157.5 213.8 167.0 218.0 175.0 C 222.2 183.0 224.3 194.0 229.0 202.0 C 233.7 210.0 242.3 216.5 246.0 223.0 C 249.7 229.5 248.7 235.3 251.0 241.0 C 253.3 246.7 255.8 254.8 260.0 257.0 C 264.2 259.2 272.3 255.3 276.0 254.0 C 279.7 252.7 282.0 253.2 282.0 249.0 C 282.0 244.8 280.2 235.2 276.0 229.0 C 271.8 222.8 263.2 221.7 257.0 212.0 C 250.8 202.3 242.0 179.0 239.0 171.0 C 236.0 163.0 239.7 165.2 239.0 164.0 C 238.3 162.8 236.7 165.7 235.0 164.0 C 233.3 162.3 229.7 157.2 229.0 154.0 C 228.3 150.8 231.8 146.8 231.0 145.0 C 230.2 143.2 226.0 147.8 224.0 143.0 C 222.0 138.2 221.3 123.5 219.0 116.0 C 216.7 108.5 217.3 104.2 210.0 98.0 C 202.7 91.8 181.0 84.8 175.0 79.0 C 169.0 73.2 173.2 67.2 174.0 63.0 C 174.8 58.8 178.8 59.7 180.0 54.0 C 181.2 48.3 181.8 35.0 181.0 29.0 C 180.2 23.0 178.5 20.8 175.0 18.0 C 171.5 15.2 165.0 12.2 160.0 12.0 Z"/>
<path class="outline" d="M 495.0 13.0 C 490.7 13.3 489.5 14.7 487.0 17.0 C 484.5 19.3 481.3 22.0 480.0 27.0 C 478.7 32.0 478.8 42.2 479.0 47.0 C 479.2 51.8 479.7 53.2 481.0 56.0 C 482.3 58.8 486.0 60.5 487.0 64.0 C 488.0 67.5 488.3 73.7 487.0 77.0 C 485.7 80.3 483.8 81.3 479.0 84.0 C 474.2 86.7 463.8 89.2 458.0 93.0 C 452.2 96.8 448.0 97.5 444.0 107.0 C 440.0 116.5 438.8 137.5 434.0 150.0 C 429.2 162.5 420.3 171.2 415.0 182.0 C 409.7 192.8 407.2 206.8 402.0 215.0 C 396.8 223.2 387.8 225.3 384.0 231.0 C 380.2 236.7 377.8 244.8 379.0 249.0 C 380.2 253.2 387.2 254.8 391.0 256.0 C 394.8 257.2 398.3 261.0 402.0 256.0 C 405.7 251.0 407.5 236.0 413.0 226.0 C 418.5 216.0 429.5 205.3 435.0 196.0 C 440.5 186.7 442.5 176.7 446.0 170.0 C 449.5 163.3 453.0 158.3 456.0 156.0 C 459.0 153.7 462.2 155.3 464.0 156.0 C 465.8 156.7 466.0 155.5 467.0 160.0 C 468.0 164.5 471.3 174.2 470.0 183.0 C 468.7 191.8 461.5 204.2 459.0 213.0 C 456.5 221.8 455.8 211.8 455.0 236.0 C 454.2 260.2 454.8 335.3 454.0 358.0 C 453.2 380.7 450.7 365.2 450.0 372.0 C 449.3 378.8 448.8 384.8 450.0 399.0 C 451.2 413.2 456.3 445.2 457.0 457.0 C 457.7 468.8 456.7 466.3 454.0 470.0 C 451.3 473.7 441.3 477.5 441.0 479.0 C 440.7 480.5 449.3 480.7 452.0 479.0 C 454.7 477.3 455.8 475.8 457.0 469.0 C 458.2 462.2 456.8 443.0 459.0 438.0 C 461.2 433.0 467.7 432.2 470.0 439.0 C 472.3 445.8 472.7 480.8 473.0 479.0 C 473.3 477.2 471.2 442.2 472.0 428.0 C 472.8 413.8 476.8 405.8 478.0 394.0 C 479.2 382.2 477.3 370.2 479.0 357.0 C 480.7 343.8 486.0 322.5 488.0 315.0 C 490.0 307.5 489.5 318.7 491.0 312.0 C 492.5 305.3 494.3 280.8 497.0 275.0 C 499.7 269.2 502.5 263.3 507.0 277.0 C 511.5 290.7 521.0 336.7 524.0 357.0 C 527.0 377.3 523.8 387.2 525.0 399.0 C 526.2 410.8 530.2 414.7 531.0 428.0 C 531.8 441.3 529.5 477.3 530.0 479.0 C 530.5 480.7 531.5 444.7 534.0 438.0 C 536.5 431.3 543.3 435.8 545.0 439.0 C 546.7 442.2 543.0 450.3 544.0 457.0 C 545.0 463.7 548.0 475.3 551.0 479.0 C 554.0 482.7 562.2 480.2 562.0 479.0 C 561.8 477.8 552.7 475.7 550.0 472.0 C 547.3 468.3 545.5 473.5 546.0 457.0 C 546.5 440.5 552.7 389.8 553.0 373.0 C 553.3 356.2 548.8 378.5 548.0 356.0 C 547.2 333.5 548.5 261.2 548.0 238.0 C 547.5 214.8 547.5 226.2 545.0 217.0 C 542.5 207.8 534.2 193.3 533.0 183.0 C 531.8 172.7 535.8 159.7 538.0 155.0 C 540.2 150.3 542.3 151.7 546.0 155.0 C 549.7 158.3 555.5 166.5 560.0 175.0 C 564.5 183.5 568.0 197.5 573.0 206.0 C 578.0 214.5 586.7 220.3 590.0 226.0 C 593.3 231.7 591.2 235.0 593.0 240.0 C 594.8 245.0 598.5 253.2 601.0 256.0 C 603.5 258.8 604.8 257.5 608.0 257.0 C 611.2 256.5 617.3 254.8 620.0 253.0 C 622.7 251.2 624.7 250.5 624.0 246.0 C 623.3 241.5 618.7 230.0 616.0 226.0 C 613.3 222.0 611.0 224.7 608.0 222.0 C 605.0 219.3 601.5 216.8 598.0 210.0 C 594.5 203.2 591.7 190.7 587.0 181.0 C 582.3 171.3 575.0 164.5 570.0 152.0 C 565.0 139.5 560.7 115.5 557.0 106.0 C 553.3 96.5 553.5 98.7 548.0 95.0 C 542.5 91.3 529.3 87.0 524.0 84.0 C 518.7 81.0 517.3 80.5 516.0 77.0 C 514.7 73.5 515.2 66.3 516.0 63.0 C 516.8 59.7 519.8 59.8 521.0 57.0 C 522.2 54.2 523.0 51.7 523.0 46.0 C 523.0 40.3 522.7 28.2 521.0 23.0 C 519.3 17.8 517.3 16.7 513.0 15.0 C 508.7 13.3 499.3 12.7 495.0 13.0 Z"/>
<g data-group="quads"><path class="muscle" d="M 123.0 246.0 C 119.3 245.7 118.2 251.8 117.0 260.0 C 115.8 268.2 114.8 285.0 116.0 295.0 C 117.2 305.0 121.0 315.3 124.0 320.0 C 127.0 324.7 131.0 324.0 134.0 323.0 C 137.0 322.0 140.0 321.3 142.0 314.0 C 144.0 306.7 146.5 287.7 146.0 279.0 C 145.5 270.3 142.8 267.5 139.0 262.0 C 135.2 256.5 126.7 246.3 123.0 246.0 Z"/><path class="muscle" d="M 197.0 247.0 C 195.5 244.3 196.2 244.2 193.0 247.0 C 189.8 249.8 181.5 258.2 178.0 264.0 C 174.5 269.8 172.3 273.8 172.0 282.0 C 171.7 290.2 173.5 306.2 176.0 313.0 C 178.5 319.8 183.8 322.0 187.0 323.0 C 190.2 324.0 192.5 322.8 195.0 319.0 C 197.5 315.2 200.8 309.3 202.0 300.0 C 203.2 290.7 202.8 271.8 202.0 263.0 C 201.2 254.2 198.5 249.7 197.0 247.0 Z"/><path class="muscle" d="M 191.0 224.0 C 190.0 220.5 185.5 224.0 181.0 228.0 C 176.5 232.0 166.5 240.0 164.0 248.0 C 161.5 256.0 162.2 275.8 166.0 276.0 C 169.8 276.2 182.8 257.7 187.0 249.0 C 191.2 240.3 192.0 227.5 191.0 224.0 Z"/><path class="muscle" d="M 129.0 224.0 C 125.0 222.7 127.2 230.3 128.0 235.0 C 128.8 239.7 130.0 245.3 134.0 252.0 C 138.0 258.7 148.5 274.3 152.0 275.0 C 155.5 275.7 155.0 261.3 155.0 256.0 C 155.0 250.7 156.3 248.3 152.0 243.0 C 147.7 237.7 133.0 225.3 129.0 224.0 Z"/></g>
<g data-group="chest"><path class="muscle" d="M 152.0 100.0 C 148.8 99.3 143.3 98.0 138.0 100.0 C 132.7 102.0 123.2 108.7 120.0 112.0 C 116.8 115.3 118.3 116.7 119.0 120.0 C 119.7 123.3 121.3 129.0 124.0 132.0 C 126.7 135.0 130.0 137.7 135.0 138.0 C 140.0 138.3 150.3 139.7 154.0 134.0 C 157.7 128.3 157.3 109.7 157.0 104.0 C 156.7 98.3 155.2 100.7 152.0 100.0 Z"/><path class="muscle" d="M 165.0 101.0 C 161.2 102.0 162.3 102.8 162.0 108.0 C 161.7 113.2 160.3 127.0 163.0 132.0 C 165.7 137.0 173.3 137.5 178.0 138.0 C 182.7 138.5 187.5 137.2 191.0 135.0 C 194.5 132.8 197.8 129.0 199.0 125.0 C 200.2 121.0 200.3 114.8 198.0 111.0 C 195.7 107.2 190.5 103.7 185.0 102.0 C 179.5 100.3 168.8 100.0 165.0 101.0 Z"/></g>
<g data-group="abs"><path class="muscle" d="M 148.0 142.0 C 145.2 143.2 141.3 142.7 140.0 151.0 C 138.7 159.3 139.0 181.8 140.0 192.0 C 141.0 202.2 143.2 207.2 146.0 212.0 C 148.8 216.8 155.2 232.3 157.0 221.0 C 158.8 209.7 158.5 157.2 157.0 144.0 C 155.5 130.8 150.8 140.8 148.0 142.0 Z"/><path class="muscle" d="M 170.0 142.0 C 167.3 141.5 163.3 132.0 162.0 145.0 C 160.7 158.0 160.5 208.3 162.0 220.0 C 163.5 231.7 168.3 219.5 171.0 215.0 C 173.7 210.5 176.8 204.2 178.0 193.0 C 179.2 181.8 179.3 156.5 178.0 148.0 C 176.7 139.5 172.7 142.5 170.0 142.0 Z"/><path class="muscle" d="M 132.0 150.0 C 130.7 154.5 127.7 185.0 128.0 193.0 C 128.3 201.0 132.7 202.5 134.0 198.0 C 135.3 193.5 136.3 174.0 136.0 166.0 C 135.7 158.0 133.3 145.5 132.0 150.0 Z"/><path class="muscle" d="M 184.0 150.0 C 183.2 158.0 182.5 190.8 183.0 199.0 C 183.5 207.2 185.7 200.2 187.0 199.0 C 188.3 197.8 190.8 195.2 191.0 192.0 C 191.2 188.8 188.2 185.2 188.0 180.0 C 187.8 174.8 190.0 165.8 190.0 161.0 C 190.0 156.2 189.0 152.8 188.0 151.0 C 187.0 149.2 184.8 142.0 184.0 150.0 Z"/><path class="muscle" d="M 122.0 205.0 C 122.3 207.3 125.2 215.0 129.0 218.0 C 132.8 221.0 143.3 224.2 145.0 223.0 C 146.7 221.8 142.0 214.2 139.0 211.0 C 136.0 207.8 129.8 205.0 127.0 204.0 C 124.2 203.0 121.7 202.7 122.0 205.0 Z"/><path class="muscle" d="M 195.0 204.0 C 192.5 203.8 183.2 208.0 180.0 211.0 C 176.8 214.0 174.3 220.8 176.0 222.0 C 177.7 223.2 186.8 219.7 190.0 218.0 C 193.2 216.3 194.2 214.3 195.0 212.0 C 195.8 209.7 197.5 204.2 195.0 204.0 Z"/></g>
<g data-group="biceps"><path class="muscle" d="M 202.0 124.0 C 200.0 126.5 201.7 142.2 204.0 149.0 C 206.3 155.8 212.8 161.8 216.0 165.0 C 219.2 168.2 221.5 169.7 223.0 168.0 C 224.5 166.3 226.2 160.7 225.0 155.0 C 223.8 149.3 219.8 139.2 216.0 134.0 C 212.2 128.8 204.0 121.5 202.0 124.0 Z"/><path class="muscle" d="M 116.0 125.0 C 115.7 120.8 115.3 121.7 112.0 125.0 C 108.7 128.3 98.7 138.0 96.0 145.0 C 93.3 152.0 94.8 163.7 96.0 167.0 C 97.2 170.3 100.0 167.8 103.0 165.0 C 106.0 162.2 111.8 156.7 114.0 150.0 C 116.2 143.3 116.3 129.2 116.0 125.0 Z"/></g>
<g data-group="forearms"><path class="muscle" d="M 94.0 172.0 C 93.0 169.3 90.5 170.8 88.0 172.0 C 85.5 173.2 82.3 173.3 79.0 179.0 C 75.7 184.7 69.8 200.0 68.0 206.0 C 66.2 212.0 65.8 215.0 68.0 215.0 C 70.2 215.0 76.7 210.5 81.0 206.0 C 85.3 201.5 91.8 193.7 94.0 188.0 C 96.2 182.3 95.0 174.7 94.0 172.0 Z"/><path class="muscle" d="M 224.0 172.0 C 222.5 174.3 221.7 181.3 224.0 187.0 C 226.3 192.7 233.5 201.3 238.0 206.0 C 242.5 210.7 250.7 219.3 251.0 215.0 C 251.3 210.7 243.0 187.0 240.0 180.0 C 237.0 173.0 235.7 174.3 233.0 173.0 C 230.3 171.7 225.5 169.7 224.0 172.0 Z"/><path class="muscle" d="M 436.0 172.0 C 433.3 171.3 426.3 170.8 422.0 178.0 C 417.7 185.2 411.3 208.8 410.0 215.0 C 408.7 221.2 409.8 219.0 414.0 215.0 C 418.2 211.0 431.0 196.5 435.0 191.0 C 439.0 185.5 437.8 185.2 438.0 182.0 C 438.2 178.8 438.7 172.7 436.0 172.0 Z"/><path class="muscle" d="M 568.0 172.0 C 565.2 172.2 564.8 176.8 565.0 180.0 C 565.2 183.2 566.3 186.5 569.0 191.0 C 571.7 195.5 577.0 203.0 581.0 207.0 C 585.0 211.0 591.3 216.7 593.0 215.0 C 594.7 213.3 592.8 203.0 591.0 197.0 C 589.2 191.0 585.8 183.2 582.0 179.0 C 578.2 174.8 570.8 171.8 568.0 172.0 Z"/></g>
<g data-group="shoulders"><path class="muscle" d="M 184.0 92.0 C 187.7 97.2 211.8 119.0 217.0 122.0 C 222.2 125.0 217.2 114.5 215.0 110.0 C 212.8 105.5 207.3 98.2 204.0 95.0 C 200.7 91.8 198.3 91.5 195.0 91.0 C 191.7 90.5 180.3 86.8 184.0 92.0 Z"/><path class="muscle" d="M 135.0 92.0 C 135.0 90.5 126.3 90.5 123.0 91.0 C 119.7 91.5 118.2 92.2 115.0 95.0 C 111.8 97.8 106.3 104.0 104.0 108.0 C 101.7 112.0 100.8 116.8 101.0 119.0 C 101.2 121.2 101.3 124.2 105.0 121.0 C 108.7 117.8 118.0 104.8 123.0 100.0 C 128.0 95.2 135.0 93.5 135.0 92.0 Z"/><path class="muscle" d="M 528.0 105.0 C 525.7 107.5 527.8 110.5 533.0 114.0 C 538.2 117.5 555.2 126.8 559.0 126.0 C 562.8 125.2 558.0 113.5 556.0 109.0 C 554.0 104.5 551.7 99.7 547.0 99.0 C 542.3 98.3 530.3 102.5 528.0 105.0 Z"/><path class="muscle" d="M 475.0 106.0 C 473.5 102.7 459.2 97.3 454.0 99.0 C 448.8 100.7 445.7 111.5 444.0 116.0 C 442.3 120.5 440.8 125.5 444.0 126.0 C 447.2 126.5 457.8 122.3 463.0 119.0 C 468.2 115.7 476.5 109.3 475.0 106.0 Z"/></g>
<g data-group="hamstrings"><path class="muscle" d="M 475.0 250.0 C 472.3 247.7 466.8 253.3 464.0 257.0 C 461.2 260.7 458.5 260.3 458.0 272.0 C 457.5 283.7 459.5 315.8 461.0 327.0 C 462.5 338.2 464.5 337.7 467.0 339.0 C 469.5 340.3 473.7 339.8 476.0 335.0 C 478.3 330.2 480.3 320.7 481.0 310.0 C 481.7 299.3 481.0 281.0 480.0 271.0 C 479.0 261.0 477.7 252.3 475.0 250.0 Z"/><path class="muscle" d="M 528.0 250.0 C 525.5 252.0 524.0 257.2 523.0 268.0 C 522.0 278.8 521.3 304.0 522.0 315.0 C 522.7 326.0 524.5 330.2 527.0 334.0 C 529.5 337.8 534.5 339.5 537.0 338.0 C 539.5 336.5 540.7 336.7 542.0 325.0 C 543.3 313.3 545.7 279.5 545.0 268.0 C 544.3 256.5 540.8 259.0 538.0 256.0 C 535.2 253.0 530.5 248.0 528.0 250.0 Z"/></g>
<g data-group="calves"><path class="muscle" d="M 465.0 360.0 C 462.3 360.5 457.5 363.3 455.0 366.0 C 452.5 368.7 450.3 373.0 450.0 376.0 C 449.7 379.0 453.0 382.5 453.0 384.0 C 453.0 385.5 450.5 382.8 450.0 385.0 C 449.5 387.2 449.3 395.0 450.0 397.0 C 450.7 399.0 453.8 395.0 454.0 397.0 C 454.2 399.0 450.8 406.8 451.0 409.0 C 451.2 411.2 454.8 408.7 455.0 410.0 C 455.2 411.3 451.8 415.2 452.0 417.0 C 452.2 418.8 455.8 419.7 456.0 421.0 C 456.2 422.3 452.3 422.2 453.0 425.0 C 453.7 427.8 457.7 437.0 460.0 438.0 C 462.3 439.0 465.0 437.7 467.0 431.0 C 469.0 424.3 470.2 404.7 472.0 398.0 C 473.8 391.3 477.0 394.7 478.0 391.0 C 479.0 387.3 479.2 380.7 478.0 376.0 C 476.8 371.3 473.2 365.7 471.0 363.0 C 468.8 360.3 467.7 359.5 465.0 360.0 Z"/><path class="muscle" d="M 535.0 361.0 C 532.0 364.5 525.5 375.2 525.0 382.0 C 524.5 388.8 530.3 394.3 532.0 402.0 C 533.7 409.7 533.2 422.0 535.0 428.0 C 536.8 434.0 541.2 437.3 543.0 438.0 C 544.8 438.7 545.0 432.5 546.0 432.0 C 547.0 431.5 549.0 435.7 549.0 435.0 C 549.0 434.3 545.8 429.3 546.0 428.0 C 546.2 426.7 549.8 428.7 550.0 427.0 C 550.2 425.3 546.8 419.7 547.0 418.0 C 547.2 416.3 550.8 418.8 551.0 417.0 C 551.2 415.2 548.3 410.8 548.0 407.0 C 547.7 403.2 548.2 396.0 549.0 394.0 C 549.8 392.0 552.3 398.3 553.0 395.0 C 553.7 391.7 554.7 379.7 553.0 374.0 C 551.3 368.3 546.0 363.2 543.0 361.0 C 540.0 358.8 538.0 357.5 535.0 361.0 Z"/></g>
<g data-group="lats"><path class="muscle" d="M 479.0 115.0 C 474.3 110.2 467.5 117.7 465.0 123.0 C 462.5 128.3 463.2 138.3 464.0 147.0 C 464.8 155.7 468.2 169.2 470.0 175.0 C 471.8 180.8 471.2 185.8 475.0 182.0 C 478.8 178.2 492.3 163.2 493.0 152.0 C 493.7 140.8 483.7 119.8 479.0 115.0 Z"/><path class="muscle" d="M 524.0 115.0 C 519.3 120.2 509.5 143.0 510.0 154.0 C 510.5 165.0 522.8 178.8 527.0 181.0 C 531.2 183.2 533.2 176.7 535.0 167.0 C 536.8 157.3 539.8 131.7 538.0 123.0 C 536.2 114.3 528.7 109.8 524.0 115.0 Z"/></g>
<g data-group="lower_back"><path class="muscle" d="M 495.0 160.0 C 492.0 165.0 479.5 183.0 480.0 190.0 C 480.5 197.0 495.0 207.0 498.0 202.0 C 501.0 197.0 498.5 167.0 498.0 160.0 C 497.5 153.0 498.0 155.0 495.0 160.0 Z"/><path class="muscle" d="M 506.0 161.0 C 503.2 163.5 503.2 196.2 506.0 201.0 C 508.8 205.8 520.2 192.5 523.0 190.0 C 525.8 187.5 525.8 190.8 523.0 186.0 C 520.2 181.2 508.8 158.5 506.0 161.0 Z"/><path class="muscle" d="M 471.0 184.0 C 468.0 187.5 461.0 200.5 458.0 217.0 C 455.0 233.5 453.3 275.7 453.0 283.0 C 452.7 290.3 454.0 266.3 456.0 261.0 C 458.0 255.7 464.2 253.8 465.0 251.0 C 465.8 248.2 461.5 249.5 461.0 244.0 C 460.5 238.5 460.8 224.8 462.0 218.0 C 463.2 211.2 465.7 206.7 468.0 203.0 C 470.3 199.3 475.5 199.2 476.0 196.0 C 476.5 192.8 474.0 180.5 471.0 184.0 Z"/><path class="muscle" d="M 532.0 186.0 C 530.7 187.7 526.0 192.2 527.0 196.0 C 528.0 199.8 535.5 203.8 538.0 209.0 C 540.5 214.2 541.3 221.3 542.0 227.0 C 542.7 232.7 542.7 238.8 542.0 243.0 C 541.3 247.2 537.7 250.2 538.0 252.0 C 538.3 253.8 543.2 253.0 544.0 254.0 C 544.8 255.0 542.3 256.5 543.0 258.0 C 543.7 259.5 547.5 269.0 548.0 263.0 C 548.5 257.0 547.3 232.3 546.0 222.0 C 544.7 211.7 541.7 204.7 540.0 201.0 C 538.3 197.3 536.8 202.5 536.0 200.0 C 535.2 197.5 535.7 188.3 535.0 186.0 C 534.3 183.7 533.3 184.3 532.0 186.0 Z"/></g>
<g data-group="glutes"><path class="muscle" d="M 475.0 201.0 C 472.0 204.0 467.5 214.8 466.0 221.0 C 464.5 227.2 465.2 234.0 466.0 238.0 C 466.8 242.0 467.5 243.8 471.0 245.0 C 474.5 246.2 482.7 246.0 487.0 245.0 C 491.3 244.0 495.3 243.0 497.0 239.0 C 498.7 235.0 499.2 227.0 497.0 221.0 C 494.8 215.0 487.7 206.3 484.0 203.0 C 480.3 199.7 478.0 198.0 475.0 201.0 Z"/><path class="muscle" d="M 523.0 201.0 C 519.2 202.5 512.2 211.7 509.0 217.0 C 505.8 222.3 504.2 229.0 504.0 233.0 C 503.8 237.0 504.2 238.8 508.0 241.0 C 511.8 243.2 522.2 246.2 527.0 246.0 C 531.8 245.8 535.3 243.8 537.0 240.0 C 538.7 236.2 537.8 228.3 537.0 223.0 C 536.2 217.7 534.3 211.7 532.0 208.0 C 529.7 204.3 526.8 199.5 523.0 201.0 Z"/></g>
<g data-group="traps"><path class="muscle" d="M 499.0 76.0 C 493.7 67.0 469.7 89.5 464.0 93.0 C 458.3 96.5 461.7 94.8 465.0 97.0 C 468.3 99.2 480.3 101.0 484.0 106.0 C 487.7 111.0 485.0 120.2 487.0 127.0 C 489.0 133.8 494.0 155.5 496.0 147.0 C 498.0 138.5 504.3 85.0 499.0 76.0 Z"/><path class="muscle" d="M 504.0 78.0 C 498.5 86.5 505.2 133.0 506.0 144.0 C 506.8 155.0 506.8 150.3 509.0 144.0 C 511.2 137.7 516.7 113.2 519.0 106.0 C 521.3 98.8 519.8 102.5 523.0 101.0 C 526.2 99.5 535.3 98.3 538.0 97.0 C 540.7 95.7 544.7 96.2 539.0 93.0 C 533.3 89.8 509.5 69.5 504.0 78.0 Z"/></g>
<g data-group="triceps"><path class="muscle" d="M 542.0 127.0 C 540.3 130.0 541.5 142.3 544.0 148.0 C 546.5 153.7 555.2 160.8 557.0 161.0 C 558.8 161.2 553.5 150.2 555.0 149.0 C 556.5 147.8 564.3 154.8 566.0 154.0 C 567.7 153.2 567.0 148.0 565.0 144.0 C 563.0 140.0 557.8 132.8 554.0 130.0 C 550.2 127.2 543.7 124.0 542.0 127.0 Z"/><path class="muscle" d="M 460.0 127.0 C 458.3 124.3 452.5 127.7 449.0 130.0 C 445.5 132.3 441.0 137.0 439.0 141.0 C 437.0 145.0 435.8 152.8 437.0 154.0 C 438.2 155.2 444.5 146.8 446.0 148.0 C 447.5 149.2 444.7 159.7 446.0 161.0 C 447.3 162.3 451.8 158.5 454.0 156.0 C 456.2 153.5 458.0 150.8 459.0 146.0 C 460.0 141.2 461.7 129.7 460.0 127.0 Z"/></g>
<g data-group="adductors"><path class="muscle" d="M 496.0 247.0 C 494.2 240.7 483.8 239.3 482.0 250.0 C 480.2 260.7 483.2 304.7 485.0 311.0 C 486.8 317.3 491.2 298.7 493.0 288.0 C 494.8 277.3 497.8 253.3 496.0 247.0 Z"/><path class="muscle" d="M 507.0 248.0 C 505.2 254.5 508.3 279.0 510.0 289.0 C 511.7 299.0 515.2 314.5 517.0 308.0 C 518.8 301.5 522.7 260.0 521.0 250.0 C 519.3 240.0 508.8 241.5 507.0 248.0 Z"/></g>
</svg>